<svg width="18" height="18" viewBox="0 0 18 18" fill="none" xmlns="http://www.w3.org/2000/svg">
<path fill-rule="evenodd" clip-rule="evenodd" d="M1 0C1.26522 0 1.51957 0.105357 1.70711 0.292893C1.89464 0.48043 2 0.734784 2 1V2H4V1C4 0.734784 4.10536 0.48043 4.29289 0.292893C4.48043 0.105357 4.73478 0 5 0C5.26522 0 5.51957 0.105357 5.70711 0.292893C5.89464 0.48043 6 0.734784 6 1V2H8V1C8 0.734784 8.10536 0.48043 8.29289 0.292893C8.48043 0.105357 8.73478 0 9 0C9.26522 0 9.51957 0.105357 9.70711 0.292893C9.89464 0.48043 10 0.734784 10 1V2H12V1C12 0.734784 12.1054 0.48043 12.2929 0.292893C12.4804 0.105357 12.7348 0 13 0C13.2652 0 13.5196 0.105357 13.7071 0.292893C13.8946 0.48043 14 0.734784 14 1V2H16V1C16 0.734784 16.1054 0.48043 16.2929 0.292893C16.4804 0.105357 16.7348 0 17 0C17.2652 0 17.5196 0.105357 17.7071 0.292893C17.8946 0.48043 18 0.734784 18 1V15C18 15.7956 17.6839 16.5587 17.1213 17.1213C16.5587 17.6839 15.7956 18 15 18H3C2.20435 18 1.44129 17.6839 0.87868 17.1213C0.316071 16.5587 0 15.7956 0 15V1C0 0.734784 0.105357 0.48043 0.292893 0.292893C0.48043 0.105357 0.734784 0 1 0ZM16 4H2V15C2 15.2652 2.10536 15.5196 2.29289 15.7071C2.48043 15.8946 2.73478 16 3 16H15C15.2652 16 15.5196 15.8946 15.7071 15.7071C15.8946 15.5196 16 15.2652 16 15V4ZM10 7C10 7.26522 9.89464 7.51957 9.70711 7.70711C9.51957 7.89464 9.26522 8 9 8C8.73478 8 8.48043 7.89464 8.29289 7.70711C8.10536 7.51957 8 7.26522 8 7C8 6.73478 8.10536 6.48043 8.29289 6.29289C8.48043 6.10536 8.73478 6 9 6C9.26522 6 9.51957 6.10536 9.70711 6.29289C9.89464 6.48043 10 6.73478 10 7ZM13 8C13.2652 8 13.5196 7.89464 13.7071 7.70711C13.8946 7.51957 14 7.26522 14 7C14 6.73478 13.8946 6.48043 13.7071 6.29289C13.5196 6.10536 13.2652 6 13 6C12.7348 6 12.4804 6.10536 12.2929 6.29289C12.1054 6.48043 12 6.73478 12 7C12 7.26522 12.1054 7.51957 12.2929 7.70711C12.4804 7.89464 12.7348 8 13 8ZM6 10C6 10.2652 5.89464 10.5196 5.70711 10.7071C5.51957 10.8946 5.26522 11 5 11C4.73478 11 4.48043 10.8946 4.29289 10.7071C4.10536 10.5196 4 10.2652 4 10C4 9.73478 4.10536 9.48043 4.29289 9.29289C4.48043 9.10536 4.73478 9 5 9C5.26522 9 5.51957 9.10536 5.70711 9.29289C5.89464 9.48043 6 9.73478 6 10ZM9 11C9.26522 11 9.51957 10.8946 9.70711 10.7071C9.89464 10.5196 10 10.2652 10 10C10 9.73478 9.89464 9.48043 9.70711 9.29289C9.51957 9.10536 9.26522 9 9 9C8.73478 9 8.48043 9.10536 8.29289 9.29289C8.10536 9.48043 8 9.73478 8 10C8 10.2652 8.10536 10.5196 8.29289 10.7071C8.48043 10.8946 8.73478 11 9 11ZM14 10C14 10.2652 13.8946 10.5196 13.7071 10.7071C13.5196 10.8946 13.2652 11 13 11C12.7348 11 12.4804 10.8946 12.2929 10.7071C12.1054 10.5196 12 10.2652 12 10C12 9.73478 12.1054 9.48043 12.2929 9.29289C12.4804 9.10536 12.7348 9 13 9C13.2652 9 13.5196 9.10536 13.7071 9.29289C13.8946 9.48043 14 9.73478 14 10ZM5 14C5.26522 14 5.51957 13.8946 5.70711 13.7071C5.89464 13.5196 6 13.2652 6 13C6 12.7348 5.89464 12.4804 5.70711 12.2929C5.51957 12.1054 5.26522 12 5 12C4.73478 12 4.48043 12.1054 4.29289 12.2929C4.10536 12.4804 4 12.7348 4 13C4 13.2652 4.10536 13.5196 4.29289 13.7071C4.48043 13.8946 4.73478 14 5 14ZM10 13C10 13.2652 9.89464 13.5196 9.70711 13.7071C9.51957 13.8946 9.26522 14 9 14C8.73478 14 8.48043 13.8946 8.29289 13.7071C8.10536 13.5196 8 13.2652 8 13C8 12.7348 8.10536 12.4804 8.29289 12.2929C8.48043 12.1054 8.73478 12 9 12C9.26522 12 9.51957 12.1054 9.70711 12.2929C9.89464 12.4804 10 12.7348 10 13ZM13 14C13.2652 14 13.5196 13.8946 13.7071 13.7071C13.8946 13.5196 14 13.2652 14 13C14 12.7348 13.8946 12.4804 13.7071 12.2929C13.5196 12.1054 13.2652 12 13 12C12.7348 12 12.4804 12.1054 12.2929 12.2929C12.1054 12.4804 12 12.7348 12 13C12 13.2652 12.1054 13.5196 12.2929 13.7071C12.4804 13.8946 12.7348 14 13 14Z" fill="#5FE19B"/>
</svg>
