<svg width="22" height="17" viewBox="0 0 22 17" fill="none" xmlns="http://www.w3.org/2000/svg">
<path fill-rule="evenodd" clip-rule="evenodd" d="M18.7073 1.707C18.8895 1.5184 18.9903 1.2658 18.988 1.0036C18.9857 0.741402 18.8805 0.49059 18.6951 0.305182C18.5097 0.119773 18.2589 0.0146042 17.9967 0.0123258C17.7345 0.0100473 17.4819 0.110842 17.2933 0.293L13.0323 4.553C12.2683 4.10201 11.3761 3.9178 10.496 4.02935C9.61586 4.14089 8.79779 4.54186 8.17048 5.16918C7.54316 5.79649 7.14219 6.61456 7.03065 7.49468C6.9191 8.37479 7.10331 9.26702 7.5543 10.031L3.2933 14.293C3.19779 14.3852 3.1216 14.4956 3.0692 14.6176C3.01679 14.7396 2.9892 14.8708 2.98805 15.0036C2.98689 15.1364 3.01219 15.2681 3.06248 15.391C3.11276 15.5138 3.18701 15.6255 3.2809 15.7194C3.37479 15.8133 3.48645 15.8875 3.60934 15.9378C3.73224 15.9881 3.86392 16.0134 3.9967 16.0123C4.12948 16.0111 4.2607 15.9835 4.3827 15.9311C4.50471 15.8787 4.61505 15.8025 4.7073 15.707L8.9683 11.447C9.73228 11.898 10.6245 12.0822 11.5046 11.9707C12.3847 11.8591 13.2028 11.4581 13.8301 10.8308C14.4574 10.2035 14.8584 9.38544 14.9699 8.50532C15.0815 7.62521 14.8973 6.73298 14.4463 5.969L18.7073 1.707ZM11.5183 6.067C11.1791 5.97598 10.8219 5.97588 10.4827 6.06672C10.1434 6.15756 9.83408 6.33612 9.58575 6.58445C9.33742 6.83278 9.15885 7.14213 9.06802 7.48138C8.97718 7.82062 8.97728 8.1778 9.0683 8.517L11.5183 6.067ZM10.4823 9.932L12.9323 7.482C13.0233 7.8212 13.0234 8.17838 12.9326 8.51762C12.8417 8.85687 12.6632 9.16622 12.4148 9.41455C12.1665 9.66288 11.8572 9.84145 11.5179 9.93228C11.1787 10.0231 10.8215 10.023 10.4823 9.932ZM14.7653 0.821C13.6303 0.32 12.3673 0 11.0003 0C8.1483 0 5.7573 1.395 3.9983 2.906C2.2333 4.423 1.0083 6.138 0.464297 6.97C0.26333 7.27593 0.15625 7.63397 0.15625 8C0.15625 8.36603 0.26333 8.72407 0.464297 9.03C1.25853 10.2394 2.17977 11.3604 3.2123 12.374L4.6263 10.96C3.7095 10.0618 2.88966 9.06965 2.1803 8C2.6903 7.227 3.7783 5.732 5.3013 4.423C6.8743 3.072 8.8163 2 11.0003 2C11.7552 2.00286 12.5047 2.12677 13.2203 2.367L14.7653 0.821ZM11.0003 14C10.2454 13.9971 9.49592 13.8732 8.7803 13.633L7.2363 15.18C8.3723 15.68 9.6343 16.001 11.0013 16.001C13.8533 16.001 16.2443 14.606 18.0033 13.095C19.7683 11.578 20.9933 9.863 21.5373 9.031C21.9483 8.403 21.9483 7.6 21.5373 6.971C20.7431 5.7616 19.8218 4.64057 18.7893 3.627L17.3743 5.04C18.2911 5.93822 19.111 6.93034 19.8203 8C19.3103 8.773 18.2223 10.268 16.6993 11.577C15.1263 12.928 13.1843 14 11.0003 14Z" fill="#4CC986"/>
</svg>
