<svg width="18" height="18" viewBox="0 0 18 18" fill="none" xmlns="http://www.w3.org/2000/svg">
<path fill-rule="evenodd" clip-rule="evenodd" d="M9.00001 2.00001C7.65832 2.00035 6.34499 2.38628 5.2164 3.11183C4.08781 3.83738 3.19151 4.87198 2.63422 6.09246C2.07693 7.31293 1.88213 8.66786 2.07301 9.9959C2.26389 11.3239 2.83242 12.5692 3.71089 13.5833C4.58936 14.5974 5.74077 15.3377 7.02802 15.716C8.31527 16.0943 9.68413 16.0947 10.9716 15.7171C12.2591 15.3396 13.4109 14.6 14.29 13.5864C15.1691 12.5728 15.7383 11.3279 15.93 10H10C9.73479 10 9.48044 9.89465 9.2929 9.70712C9.10537 9.51958 9.00001 9.26523 9.00001 9.00001C9.00001 8.73479 9.10537 8.48044 9.2929 8.2929C9.48044 8.10537 9.73479 8.00001 10 8.00001H17C17.2652 8.00001 17.5196 8.10537 17.7071 8.2929C17.8947 8.48044 18 8.73479 18 9.00001C17.9998 11.0414 17.3056 13.0221 16.0313 14.617C14.7571 16.2118 12.9785 17.3261 10.9875 17.7769C8.99645 18.2277 6.91133 17.9882 5.07436 17.0978C3.23738 16.2074 1.7577 14.7189 0.878171 12.8767C-0.00135547 11.0345 -0.228465 8.94797 0.234122 6.95967C0.696708 4.97136 1.8215 3.19939 3.42389 1.9346C5.02627 0.669814 7.01104 -0.012648 9.05241 -0.00076288C11.0938 0.0111222 13.0705 0.716648 14.658 2.00001C14.8642 2.16683 14.9957 2.40874 15.0236 2.6725C15.0514 2.93627 14.9733 3.2003 14.8065 3.40651C14.6397 3.61272 14.3978 3.74421 14.134 3.77206C13.8702 3.79991 13.6062 3.72183 13.4 3.55501C12.1557 2.54628 10.6018 1.99712 9.00001 2.00001Z" fill="#36B972"/>
</svg>
