<svg width="50" height="50" viewBox="0 0 30 30" fill="none" xmlns="http://www.w3.org/2000/svg">
<g filter="url(#filter0_d_5472_1601)">
<mask id="path-1-outside-1_5472_1601" maskUnits="userSpaceOnUse" x="6" y="6.49927" width="40" height="40" fill="black">
<rect fill="white" x="6" y="6.49927" width="40" height="40"/>
<path fill-rule="evenodd" clip-rule="evenodd" d="M13.4373 7.93372C14.0427 8.2207 14.5766 8.63902 15 9.15827C15.826 8.14527 17.09 7.49927 18.5 7.49927C20.976 7.49927 23 9.48927 23 11.9663C23 14.2173 21.733 16.3063 20.273 18.0103C18.792 19.7383 16.976 21.2283 15.614 22.2883C15.4385 22.4248 15.2224 22.499 15 22.499C14.7776 22.499 14.5615 22.4248 14.386 22.2883C13.024 21.2283 11.208 19.7393 9.727 18.0103C8.267 16.3063 7 14.2173 7 11.9663C7 9.48927 9.024 7.49927 11.5 7.49927C12.17 7.49832 12.8318 7.64674 13.4373 7.93372Z"/>
</mask>
<path fill-rule="evenodd" clip-rule="evenodd" d="M13.4373 7.93372C14.0427 8.2207 14.5766 8.63902 15 9.15827C15.826 8.14527 17.09 7.49927 18.5 7.49927C20.976 7.49927 23 9.48927 23 11.9663C23 14.2173 21.733 16.3063 20.273 18.0103C18.792 19.7383 16.976 21.2283 15.614 22.2883C15.4385 22.4248 15.2224 22.499 15 22.499C14.7776 22.499 14.5615 22.4248 14.386 22.2883C13.024 21.2283 11.208 19.7393 9.727 18.0103C8.267 16.3063 7 14.2173 7 11.9663C7 9.48927 9.024 7.49927 11.5 7.49927C12.17 7.49832 12.8318 7.64674 13.4373 7.93372Z" fill="white"/>
<path d="M15 9.15827L14.225 9.79026L15 10.7406L15.775 9.79022L15 9.15827ZM13.4373 7.93372L13.8656 7.03009L13.4373 7.93372ZM20.273 18.0103L21.0323 18.661L21.0324 18.6609L20.273 18.0103ZM15.614 22.2883L16.228 23.0776L16.2282 23.0774L15.614 22.2883ZM14.386 22.2883L13.7718 23.0774L13.772 23.0776L14.386 22.2883ZM9.727 18.0103L10.4865 17.3597L10.4864 17.3596L9.727 18.0103ZM11.5 7.49927V8.49927L11.5014 8.49927L11.5 7.49927ZM15.775 8.52629C15.2576 7.89185 14.6053 7.38073 13.8656 7.03009L13.0089 8.83734C13.4801 9.06066 13.8955 9.3862 14.225 9.79026L15.775 8.52629ZM18.5 6.49927C16.7788 6.49927 15.2341 7.2888 14.225 8.52633L15.775 9.79022C16.4179 9.00175 17.4012 8.49927 18.5 8.49927V6.49927ZM24 11.9663C24 8.92728 21.5185 6.49927 18.5 6.49927V8.49927C20.4335 8.49927 22 10.0513 22 11.9663H24ZM21.0324 18.6609C22.5402 16.9012 24 14.581 24 11.9663H22C22 13.8536 20.9258 15.7114 19.5136 17.3596L21.0324 18.6609ZM16.2282 23.0774C17.601 22.0091 19.483 20.4687 21.0323 18.661L19.5137 17.3595C18.101 19.0078 16.351 20.4475 14.9998 21.4991L16.2282 23.0774ZM15 23.499C15.4448 23.499 15.8769 23.3507 16.228 23.0776L15 21.499L15 21.499V23.499ZM13.772 23.0776C14.1231 23.3507 14.5552 23.499 15 23.499V21.499V21.499L13.772 23.0776ZM8.96753 18.6608C10.517 20.4697 12.3993 22.0092 13.7718 23.0774L15.0002 21.4991C13.6487 20.4473 11.899 19.0088 10.4865 17.3597L8.96753 18.6608ZM6 11.9663C6 14.581 7.45985 16.9012 8.96762 18.6609L10.4864 17.3596C9.07415 15.7114 8 13.8536 8 11.9663H6ZM11.5 6.49927C8.48147 6.49927 6 8.92728 6 11.9663H8C8 10.0513 9.56653 8.49927 11.5 8.49927V6.49927ZM13.8656 7.03009C13.1258 6.67945 12.3172 6.49811 11.4986 6.49927L11.5014 8.49927C12.0228 8.49853 12.5378 8.61402 13.0089 8.83734L13.8656 7.03009Z" fill="white" mask="url(#path-1-outside-1_5472_1601)"/>
</g>
<defs>
<filter id="filter0_d_5472_1601" x="-3" y="-2.50073" width="36" height="34.9998" filterUnits="userSpaceOnUse" color-interpolation-filters="sRGB">
<feFlood flood-opacity="0" result="BackgroundImageFix"/>
<feColorMatrix in="SourceAlpha" type="matrix" values="0 0 0 0 0 0 0 0 0 0 0 0 0 0 0 0 0 0 127 0" result="hardAlpha"/>
<feOffset/>
<feGaussianBlur stdDeviation="3"/>
<feComposite in2="hardAlpha" operator="out"/>
<feColorMatrix type="matrix" values="0 0 0 0 0 0 0 0 0 0 0 0 0 0 0 0 0 0 0.6 0"/>
<feBlend mode="normal" in2="BackgroundImageFix" result="effect1_dropShadow_5472_1601"/>
<feBlend mode="normal" in="SourceGraphic" in2="effect1_dropShadow_5472_1601" result="shape"/>
</filter>
</defs>
</svg>
