<svg width="40" height="40" viewBox="0 0 40 40" fill="none" xmlns="http://www.w3.org/2000/svg">
<rect width="40" height="40" rx="10" fill="#515151"/>
<path fill-rule="evenodd" clip-rule="evenodd" d="M27.5432 8.7998H13.2575C11.6796 8.7998 10.4004 10.079 10.4004 11.6569V15.9427C10.4004 17.5206 11.6796 18.7998 13.2575 18.7998H27.5432C29.1212 18.7998 30.4004 17.5206 30.4004 15.9427V11.6569C30.4004 10.079 29.1212 8.7998 27.5432 8.7998ZM11.829 11.657C11.829 10.868 12.4686 10.2284 13.2576 10.2284H27.5433C28.3323 10.2284 28.9719 10.868 28.9719 11.657V15.9427C28.9719 16.7317 28.3323 17.3713 27.5433 17.3713H13.2576C12.4686 17.3713 11.829 16.7317 11.829 15.9427V11.657ZM13.2575 21.6569H27.5432C29.1212 21.6569 30.4004 22.9361 30.4004 24.5141V28.7998C30.4004 30.3778 29.1212 31.6569 27.5432 31.6569H13.2575C11.6796 31.6569 10.4004 30.3778 10.4004 28.7998V24.5141C10.4004 22.9361 11.6796 21.6569 13.2575 21.6569ZM11.829 24.514C11.829 23.725 12.4686 23.0854 13.2576 23.0854H27.5433C28.3323 23.0854 28.9719 23.725 28.9719 24.514V28.7997C28.9719 29.5887 28.3323 30.2283 27.5433 30.2283H13.2576C12.4686 30.2283 11.829 29.5887 11.829 28.7997V24.514Z" fill="#FFFDF5"/>
</svg>
