<svg width="24" height="20" viewBox="0 0 24 20" fill="none" xmlns="http://www.w3.org/2000/svg">
<path d="M9.55176 9.53674e-06L9.55176 18.2774L13.3605 19.5885L13.3605 4.26319C13.3605 3.54103 13.6568 3.06155 14.1321 3.22645C14.7535 3.41372 14.8743 4.07895 14.8743 4.79307L14.8743 10.9138C17.245 12.1606 19.1115 10.9131 19.1115 7.62345C19.1115 4.26188 18.0172 2.76435 14.7973 1.56033C13.5273 1.10084 11.1735 0.325457 9.55176 9.53674e-06Z" fill="white"/>
<path d="M14.3506 16.9129L20.1079 14.3203C20.7592 14.0148 20.8587 13.5998 20.3316 13.3817C19.7962 13.1596 18.8406 13.2232 18.1824 13.5222L14.3506 15.2325V12.5036L14.57 12.412C14.57 12.412 15.6792 11.9148 17.2392 11.7008C18.7962 11.4848 20.7057 11.7289 22.2065 12.4446C23.8971 13.1241 24.0866 14.1153 23.6589 14.8051C23.2249 15.4877 22.1728 15.9815 22.1728 15.9815L14.3506 19.5367" fill="white"/>
<path d="M1.7099 17.2146C-0.0868735 16.6444 -0.386499 15.4395 0.433179 14.7435C1.18926 14.1079 2.47691 13.6295 2.47691 13.6295L7.79974 11.4675V13.9281L3.97289 15.4908C3.29503 15.767 3.1934 16.1557 3.73939 16.359C4.29514 16.5706 5.28141 16.5137 5.95966 16.2286L7.79974 15.4728V17.6695C7.68114 17.6921 7.54927 17.715 7.42892 17.7384C5.5943 18.0852 3.63971 17.9428 1.7099 17.2146Z" fill="white"/>
<path fill-rule="evenodd" clip-rule="evenodd" d="M23.7661 19.4589C23.6149 19.6145 23.4164 19.7024 23.2027 19.7024C22.989 19.7024 22.784 19.6145 22.6326 19.4589C22.4831 19.3005 22.4004 19.0936 22.4004 18.8706C22.4004 18.4089 22.7591 18.0357 23.2027 18.0357C23.4164 18.0357 23.6149 18.1208 23.7661 18.2798C23.9156 18.4352 24 18.6456 24 18.8706C24 19.0936 23.9156 19.3005 23.7661 19.4589ZM22.5352 18.8707C22.5352 18.6808 22.6033 18.5067 22.7279 18.3776C22.8555 18.2458 23.0258 18.1747 23.2027 18.1747C23.3798 18.1747 23.5458 18.2458 23.6703 18.3776C23.7959 18.5067 23.8638 18.6808 23.8638 18.8707C23.8638 19.2511 23.567 19.5599 23.2027 19.5599C23.0258 19.5599 22.8555 19.4896 22.7279 19.3594C22.6033 19.2281 22.5352 19.0558 22.5352 18.8707ZM23.5677 19.2169C23.5748 19.2384 23.5835 19.2511 23.5958 19.2548L23.607 19.2614V19.3143H23.4334L23.4302 19.3036L23.4184 19.2717C23.4164 19.2548 23.4141 19.2328 23.4117 19.1957L23.404 19.0508C23.402 18.9993 23.3859 18.9694 23.3561 18.9496C23.334 18.9419 23.3039 18.9359 23.259 18.9359H23.018V19.3143H22.8599V18.3849H23.2745C23.3421 18.3849 23.399 18.3975 23.4426 18.4167C23.53 18.4596 23.5748 18.5368 23.5748 18.6455C23.5748 18.6988 23.5621 18.7487 23.5402 18.7856C23.5212 18.8116 23.4988 18.8353 23.4744 18.8585L23.4809 18.8633C23.4974 18.8754 23.5138 18.8874 23.5235 18.9051C23.5456 18.9305 23.5556 18.9731 23.5574 19.028L23.5614 19.1463C23.5621 19.1766 23.5644 19.2002 23.5677 19.2169ZM23.3807 18.7599C23.4063 18.7427 23.4184 18.7085 23.4184 18.6561C23.4184 18.6009 23.4001 18.5641 23.3642 18.5458C23.3421 18.5368 23.3146 18.5303 23.2779 18.5303H23.018V18.7914H23.2635C23.3123 18.7914 23.3511 18.7809 23.3807 18.7599Z" fill="white"/>
</svg>
