<svg width="40" height="40" viewBox="0 0 40 40" fill="none" xmlns="http://www.w3.org/2000/svg">
<rect width="40" height="40" rx="10" fill="#303030"/>
<path fill-rule="evenodd" clip-rule="evenodd" d="M10.4004 11.8288C10.4004 11.4343 10.7202 11.1145 11.1147 11.1145H29.6861C30.0806 11.1145 30.4004 11.4343 30.4004 11.8288C30.4004 12.2233 30.0806 12.5431 29.6861 12.5431H11.1147C10.7202 12.5431 10.4004 12.2233 10.4004 11.8288ZM27.5432 15.4002H13.2575C11.6796 15.4002 10.4004 16.6794 10.4004 18.2573V22.543C10.4004 24.121 11.6796 25.4002 13.2575 25.4002H27.5432C29.1212 25.4002 30.4004 24.121 30.4004 22.543V18.2573C30.4004 16.6794 29.1212 15.4002 27.5432 15.4002ZM11.8291 18.2575C11.8291 17.4685 12.4687 16.8289 13.2577 16.8289H27.5434C28.3324 16.8289 28.972 17.4685 28.972 18.2575V22.5432C28.972 23.3322 28.3324 23.9718 27.5434 23.9718H13.2577C12.4687 23.9718 11.8291 23.3322 11.8291 22.5432V18.2575ZM11.1147 28.2574C10.7202 28.2574 10.4004 28.5772 10.4004 28.9717C10.4004 29.3662 10.7202 29.686 11.1147 29.686H29.6861C30.0806 29.686 30.4004 29.3662 30.4004 28.9717C30.4004 28.5772 30.0806 28.2574 29.6861 28.2574H11.1147Z" fill="#515151"/>
</svg>
