<svg width="20" height="20" viewBox="0 0 20 20" fill="none" xmlns="http://www.w3.org/2000/svg">
<path fill-rule="evenodd" clip-rule="evenodd" d="M14.8842 20H11.8082C11.7298 20 11.667 19.9371 11.667 19.8585V0.125786C11.667 0.0628931 11.7141 0 11.7925 0H14.8842C17.7091 0 20.0003 2.2956 20.0003 5.12579V14.8742C20.0003 17.7044 17.7091 20 14.8842 20ZM17.6305 11.0063C17.6305 9.88994 16.7203 8.97799 15.6061 8.97799C14.4918 8.97799 13.5973 9.88994 13.5816 11.0063C13.5816 12.1226 14.4918 13.0346 15.6061 13.0346C16.7203 13.0346 17.6305 12.1226 17.6305 11.0063Z" fill="white"/>
<path d="M3.33301 6.66667C3.33301 7.58333 4.08301 8.33333 4.99967 8.33333C5.91634 8.33333 6.66634 7.58333 6.66634 6.66667C6.66634 5.75 5.91634 5 4.99967 5C4.06912 5 3.33301 5.73611 3.33301 6.66667Z" fill="white"/>
<path fill-rule="evenodd" clip-rule="evenodd" d="M5.31811 0H9.85318C9.93475 0 10 0.0628931 10 0.141509V19.8585C10 19.9371 9.93475 20 9.85318 20H5.31811C2.38173 20 0 17.7044 0 14.8742V5.12579C0 2.2956 2.38173 0 5.31811 0ZM5.31807 18.3963H8.33602V1.60382H5.31807C4.33928 1.60382 3.42574 1.98117 2.74058 2.64155C2.03912 3.30193 1.66391 4.18243 1.66391 5.12583V14.8743C1.66391 15.8177 2.05543 16.6982 2.74058 17.3585C3.42574 18.0346 4.33928 18.3963 5.31807 18.3963Z" fill="white"/>
</svg>
