<svg width="16" height="20" viewBox="0 0 16 20" fill="none" xmlns="http://www.w3.org/2000/svg">
<path fill-rule="evenodd" clip-rule="evenodd" d="M6.973 2.944C6.773 3.957 6.437 5.477 5.207 6.707C5.095 6.819 4.972 6.937 4.842 7.063C3.7 8.164 2 9.804 2 12.5C2 13.963 2.63 15.35 3.601 16.375C4.578 17.406 5.829 18 7 18H12C12.352 18 12.646 17.91 12.82 17.793C12.965 17.697 13 17.613 13 17.5C13 17.388 12.965 17.303 12.82 17.207C12.646 17.091 12.352 17 12 17H11C10.7348 17 10.4804 16.8946 10.2929 16.7071C10.1054 16.5196 10 16.2652 10 16C10 15.7348 10.1054 15.4804 10.2929 15.2929C10.4804 15.1054 10.7348 15 11 15H12.5C12.852 15 13.146 14.91 13.32 14.793C13.465 14.697 13.5 14.613 13.5 14.5C13.5 14.388 13.465 14.303 13.32 14.207C13.146 14.091 12.852 14 12.5 14H11.5C11.2348 14 10.9804 13.8946 10.7929 13.7071C10.6054 13.5196 10.5 13.2652 10.5 13C10.5 12.7348 10.6054 12.4804 10.7929 12.2929C10.9804 12.1054 11.2348 12 11.5 12H13C13.352 12 13.646 11.91 13.82 11.793C13.965 11.697 14 11.613 14 11.5C14 11.388 13.965 11.303 13.82 11.207C13.646 11.091 13.352 11 13 11H12C11.7348 11 11.4804 10.8946 11.2929 10.7071C11.1054 10.5196 11 10.2652 11 10C11 9.73478 11.1054 9.48043 11.2929 9.29289C11.4804 9.10536 11.7348 9 12 9H13C13.352 9 13.646 8.91 13.82 8.793C13.965 8.697 14 8.613 14 8.5C14 8.388 13.965 8.303 13.82 8.207C13.646 8.091 13.352 8 13 8H8.5C8.34101 8.00004 8.1843 7.96217 8.04288 7.88954C7.90145 7.8169 7.77938 7.71159 7.6868 7.58234C7.59421 7.45309 7.53378 7.30363 7.51051 7.14636C7.48724 6.98908 7.50181 6.82852 7.553 6.678V6.677L7.557 6.667L7.57 6.627L7.623 6.457C7.667 6.307 7.728 6.09 7.791 5.829C7.94306 5.21731 8.03615 4.59245 8.069 3.963C8.095 3.278 8.004 2.753 7.821 2.433C7.713 2.243 7.55 2.072 7.171 2.018C7.123 2.182 7.079 2.406 7.015 2.734L6.973 2.944ZM9.803 6C9.925 5.442 10.041 4.747 10.068 4.037C10.098 3.222 10.018 2.247 9.558 1.442C9.048 0.546 8.146 0 6.9 0C6.518 0 6.16 0.126 5.87 0.38C5.607 0.61 5.457 0.896 5.364 1.126C5.216 1.493 5.124 1.969 5.047 2.371L5.011 2.556C4.817 3.543 4.563 4.523 3.793 5.293C3.705 5.381 3.598 5.483 3.476 5.598C2.353 6.662 0 8.893 0 12.5C0 14.537 0.87 16.4 2.149 17.75C3.422 19.094 5.171 20 7 20H12C12.648 20 13.354 19.84 13.93 19.457C14.535 19.053 15 18.387 15 17.5C15 17.031 14.87 16.625 14.66 16.285C15.149 15.875 15.5 15.272 15.5 14.5C15.5 14.031 15.37 13.624 15.16 13.286C15.649 12.876 16 12.272 16 11.5C16 10.891 15.782 10.387 15.449 10C15.781 9.613 16 9.109 16 8.5C16 7.612 15.535 6.947 14.93 6.543C14.354 6.159 13.648 6 13 6H9.803Z" fill="#5FE19B"/>
</svg>
