<svg width="20" height="20" viewBox="0 0 20 20" fill="none" xmlns="http://www.w3.org/2000/svg">
<path fill-rule="evenodd" clip-rule="evenodd" d="M4 0C2.93913 0 1.92172 0.421427 1.17157 1.17157C0.421427 1.92172 0 2.93913 0 4V16C0 17.0609 0.421427 18.0783 1.17157 18.8284C1.92172 19.5786 2.93913 20 4 20H16C17.0609 20 18.0783 19.5786 18.8284 18.8284C19.5786 18.0783 20 17.0609 20 16V4C20 2.93913 19.5786 1.92172 18.8284 1.17157C18.0783 0.421427 17.0609 0 16 0H4ZM2 4C2 3.46957 2.21071 2.96086 2.58579 2.58579C2.96086 2.21071 3.46957 2 4 2H16C16.5304 2 17.0391 2.21071 17.4142 2.58579C17.7893 2.96086 18 3.46957 18 4V16C18 16.5304 17.7893 17.0391 17.4142 17.4142C17.0391 17.7893 16.5304 18 16 18H4C3.46957 18 2.96086 17.7893 2.58579 17.4142C2.21071 17.0391 2 16.5304 2 16V4ZM10 5.5C10 5.23478 9.89464 4.98043 9.70711 4.79289C9.51957 4.60536 9.26522 4.5 9 4.5C8.73478 4.5 8.48043 4.60536 8.29289 4.79289C8.10536 4.98043 8 5.23478 8 5.5V7H7C6.73478 7 6.48043 7.10536 6.29289 7.29289C6.10536 7.48043 6 7.73478 6 8C6 8.26522 6.10536 8.51957 6.29289 8.70711C6.48043 8.89464 6.73478 9 7 9H8V11.89C8 14.335 10.442 16.027 12.73 15.167L13.346 14.937C13.5944 14.8438 13.7955 14.6557 13.9053 14.4142C14.015 14.1726 14.0242 13.8974 13.931 13.649C13.8378 13.4006 13.6497 13.1995 13.4082 13.0897C13.1666 12.98 12.8914 12.9708 12.643 13.064L12.027 13.294C11.8002 13.3791 11.5562 13.408 11.3159 13.3783C11.0755 13.3486 10.8459 13.2611 10.6467 13.1233C10.4475 12.9855 10.2847 12.8015 10.172 12.5871C10.0594 12.3727 10.0004 12.1342 10 11.892V9H12.5C12.7652 9 13.0196 8.89464 13.2071 8.70711C13.3946 8.51957 13.5 8.26522 13.5 8C13.5 7.73478 13.3946 7.48043 13.2071 7.29289C13.0196 7.10536 12.7652 7 12.5 7H10V5.5Z" fill="#36B972"/>
</svg>
