<svg width="20" height="20" viewBox="0 0 20 20" fill="none" xmlns="http://www.w3.org/2000/svg">
<path fill-rule="evenodd" clip-rule="evenodd" d="M10 0C11.9286 0 13.5238 0.616246 14.9762 1.65266C15 1.65266 15 1.68067 15 1.70868C15 1.73669 14.9762 1.73669 14.9524 1.73669C13.0952 1.2605 10.2857 3.13725 10.0238 3.33333H10H9.97619C9.71429 3.13725 6.90476 1.2605 5.04762 1.73669C5.02381 1.73669 5 1.73669 5 1.70868C5 1.68067 5 1.65266 5.02381 1.65266C6.47619 0.616246 8.07143 0 10 0ZM16.3903 17.5988C17.8903 16.0464 12.9308 10.5648 10.0035 8.33333C10.0035 8.33333 9.97935 8.33333 9.97935 8.35759C7.07626 10.5648 2.09261 16.0464 3.61674 17.5988C5.31021 19.1026 7.56011 20 10.0035 20C12.447 20 14.6727 19.1026 16.3903 17.5988ZM2.73973 3.38078C2.72831 3.38078 2.7226 3.38705 2.7169 3.39332C2.71119 3.39959 2.70548 3.40585 2.69406 3.40585C1.0274 5.2358 0 7.76763 0 10.5501C0 12.8313 0.707763 14.9621 1.87215 16.6416C1.87215 16.6667 1.89498 16.6667 1.91781 16.6667C1.94064 16.6667 1.94064 16.6416 1.91781 16.6165C1.21005 14.2351 4.79452 8.4946 6.64384 6.0881L6.66667 6.06303C6.66667 6.03796 6.66667 6.03796 6.64384 6.03796C3.83562 2.9797 2.89954 3.30558 2.73973 3.38078ZM13.3333 6.05268L13.3562 6.02759C16.1644 2.99144 17.1005 3.31764 17.2374 3.36782C17.2469 3.36782 17.2525 3.36782 17.2574 3.36962C17.2642 3.37215 17.2698 3.37825 17.2831 3.39291C18.9726 5.22464 20 7.75895 20 10.5442C20 12.8276 19.2922 14.9604 18.1279 16.6416C18.1279 16.6667 18.105 16.6667 18.0822 16.6667V16.6165C18.7671 14.2327 15.2055 8.48662 13.3562 6.07777C13.3333 6.07777 13.3333 6.05268 13.3333 6.05268Z" fill="white"/>
</svg>
