<svg width="322" height="66" viewBox="0 0 322 66" fill="none" xmlns="http://www.w3.org/2000/svg">
<g filter="url(#filter0_d_75_2307)">
<path d="M23.845 51.7297C20.3708 51.7297 17.8917 50.8283 16.4075 49.0254C14.9571 47.1892 14.2319 44.318 14.2319 40.4118C14.2319 39.1765 14.2994 37.8744 14.4343 36.5056C14.603 35.1367 14.8053 33.7011 15.0415 32.1987C15.6149 28.5596 16.4919 25.4046 17.6724 22.7337C18.8867 20.0628 20.5226 17.9928 22.5801 16.5238C24.6377 15.0215 27.2518 14.2703 30.4224 14.2703C33.0871 14.2703 35.347 14.4372 37.2021 14.7711C39.0573 15.0715 40.7101 15.4221 42.1605 15.8227L41.8569 18.0262C40.4402 17.7257 38.7706 17.4587 36.848 17.225C34.9254 16.9912 32.8172 16.8744 30.5236 16.8744C27.8926 16.8744 25.7508 17.5087 24.098 18.7774C22.4452 20.0461 21.1297 21.8657 20.1516 24.2361C19.2071 26.6065 18.4651 29.5278 17.9254 33C17.4532 36.0048 17.217 38.5254 17.217 40.562C17.217 43.5 17.7905 45.6534 18.9373 47.0223C20.1178 48.3911 22.0405 49.0755 24.7051 49.0755C25.5821 49.0755 26.5266 48.992 27.5385 48.8251C28.5841 48.6582 29.6129 48.4579 30.6248 48.2242C31.6704 47.9905 32.6149 47.7567 33.4581 47.523C34.3014 47.256 34.9591 47.0222 35.4313 46.8219L37.3539 34.7528H27.6903L27.9938 32.5493C28.9045 32.4157 30.0514 32.3323 31.4343 32.2989C32.851 32.2321 34.5712 32.1987 36.595 32.1987C36.9998 32.1987 37.4383 32.2154 37.9105 32.2488C38.3827 32.2488 38.8381 32.2655 39.2766 32.2989C39.7488 32.2989 40.1873 32.3156 40.592 32.349L37.5563 51.4292H35.4313L35.3301 48.8251C34.8916 49.0254 34.2339 49.2925 33.3569 49.6264C32.5137 49.9602 31.5355 50.2941 30.4224 50.628C29.343 50.9285 28.2299 51.1955 27.0831 51.4292C25.9363 51.6296 24.8569 51.7297 23.845 51.7297Z" fill="#3D3D3D"/>
<path d="M41.9379 51.4292L61.1641 14.6709H64.9587L71.8903 51.4292H68.8546L66.679 40.0612H50.9439L44.9736 51.4292H41.9379ZM52.1582 37.4571H66.3248L62.6314 17.3752L52.1582 37.4571Z" fill="#3D3D3D"/>
<path d="M75.7822 51.4292L85.9012 14.6709H88.6333L94.047 47.2226L109.985 14.6709H112.717L111.148 51.4292H108.264L109.732 20.0795L94.8059 51.4292H92.0738L87.1661 20.1796L78.7167 51.4292H75.7822Z" fill="#3D3D3D"/>
<path d="M121.942 51.7297C121.065 51.7297 120.205 51.6296 119.362 51.4292C118.519 51.2623 117.76 50.9285 117.085 50.4277C116.444 49.9269 115.955 49.2091 115.618 48.2742C115.314 47.306 115.281 46.0707 115.517 44.5684L119.21 21.5318C119.514 19.7623 120.07 18.3768 120.88 17.3752C121.689 16.3736 122.651 15.6725 123.764 15.2719C124.911 14.8378 126.108 14.6375 127.356 14.6709C129.852 14.7043 132.348 14.7544 134.844 14.8211C137.374 14.8879 139.904 14.9714 142.433 15.0715L142.029 17.3251H127.508C126.057 17.3251 124.86 17.6924 123.916 18.4269C122.971 19.1614 122.347 20.43 122.044 22.2329L120.526 31.7981L137.526 32.1486L137.172 34.3021L120.07 34.5024L118.552 44.2178C118.35 45.5533 118.418 46.5715 118.755 47.2726C119.092 47.9738 119.615 48.4412 120.323 48.6749C121.065 48.9086 121.925 49.0254 122.904 49.0254H137.07L136.666 51.3291C134.271 51.3959 131.842 51.4626 129.38 51.5294C126.918 51.5962 124.438 51.6629 121.942 51.7297Z" fill="#3D3D3D"/>
<path d="M141.535 51.4292L146.089 22.7838C146.493 20.5135 147.202 18.7774 148.214 17.5755C149.225 16.3402 150.423 15.5056 151.806 15.0715C153.189 14.6041 154.589 14.3704 156.005 14.3704C158.906 14.3704 161.571 14.4372 163.999 14.5707C166.462 14.6709 168.89 14.8211 171.285 15.0215L170.324 21.2313H157.118C155.904 21.2313 155.01 21.5318 154.437 22.1327C153.863 22.7003 153.475 23.5684 153.273 24.7369L152.362 30.6963L166.377 31.097L165.416 36.9563L151.3 37.3068L149.023 51.4292H141.535Z" fill="#3D3D3D"/>
<path d="M168.829 51.4292L174.748 14.3704H182.236L176.317 51.4292H168.829Z" fill="#3D3D3D"/>
<path d="M181.349 51.4292L187.269 14.3704H193.289L205.028 38.8092L208.974 14.3704H216.462L210.492 51.4292H204.522L192.784 26.9404L188.837 51.4292H181.349Z" fill="#3D3D3D"/>
<path d="M215.165 51.4292L221.084 14.3704H235.302C238.573 14.3704 241.12 14.9046 242.942 15.973C244.797 17.0413 246.078 18.5437 246.787 20.4801C247.529 22.3831 247.9 24.6534 247.9 27.2909C247.9 28.3593 247.849 29.461 247.748 30.5962C247.647 31.7313 247.495 32.8831 247.293 34.0517C246.82 37.0564 246.095 39.6606 245.117 41.8641C244.173 44.0342 242.958 45.837 241.474 47.2726C239.99 48.6749 238.236 49.7265 236.212 50.4277C234.189 51.0954 231.861 51.4292 229.23 51.4292H215.165ZM223.715 44.7687H229.989C231.44 44.7687 232.704 44.5016 233.784 43.9674C234.897 43.4332 235.841 42.6653 236.617 41.6637C237.427 40.6288 238.084 39.3768 238.59 37.9078C239.096 36.4388 239.501 34.7361 239.805 32.7997C239.973 31.6645 240.108 30.6463 240.209 29.7448C240.311 28.8434 240.361 28.1256 240.361 27.5914C240.361 26.0223 240.142 24.7703 239.703 23.8354C239.265 22.8672 238.54 22.1661 237.528 21.7321C236.516 21.2647 235.15 21.031 233.43 21.031H227.51L223.715 44.7687Z" fill="#3D3D3D"/>
<path d="M257.742 51.7297C256.797 51.7297 255.819 51.6296 254.807 51.4292C253.795 51.2289 252.868 50.8283 252.025 50.2273C251.181 49.6264 250.54 48.775 250.102 47.6733C249.663 46.5715 249.596 45.1359 249.9 43.3664L253.188 22.8839C253.526 20.7138 254.166 19.0111 255.111 17.7758C256.089 16.5405 257.27 15.6725 258.653 15.1717C260.069 14.6375 261.587 14.3704 263.206 14.3704C265.736 14.3704 268.249 14.4372 270.745 14.5707C273.275 14.6709 275.855 14.8211 278.486 15.0215L277.474 21.2313H264.269C263.088 21.2313 262.194 21.5151 261.587 22.0827C260.98 22.6502 260.575 23.535 260.373 24.7369L259.614 29.5445L273.629 29.9952L272.667 35.8545L258.551 36.2552L257.742 41.4133C257.607 42.2146 257.641 42.8657 257.843 43.3664C258.045 43.8672 258.383 44.2345 258.855 44.4682C259.361 44.6685 259.985 44.7687 260.727 44.7687H273.73L272.769 50.9785C270.374 51.1788 267.945 51.3458 265.483 51.4793C263.021 51.6129 260.44 51.6963 257.742 51.7297Z" fill="#3D3D3D"/>
<path d="M277.411 51.4292L283.33 14.3704H297.649C299.167 14.3704 300.55 14.5374 301.798 14.8712C303.046 15.2051 304.108 15.7393 304.985 16.4738C305.896 17.1749 306.587 18.1097 307.059 19.2782C307.532 20.4467 307.768 21.8823 307.768 23.585C307.768 24.0525 307.734 24.5533 307.667 25.0874C307.633 25.6216 307.565 26.1892 307.464 26.7901C307.228 28.5596 306.806 30.0286 306.199 31.1971C305.626 32.3657 304.968 33.3005 304.226 34.0016C303.484 34.7027 302.742 35.2369 302 35.6041C301.258 35.9714 300.617 36.2719 300.077 36.5056L304.631 51.4292H296.991L293.196 37.6574C292.792 37.6574 292.319 37.6574 291.78 37.6574C291.274 37.6574 290.734 37.6574 290.161 37.6574C289.621 37.6574 289.081 37.6574 288.542 37.6574C288.036 37.624 287.563 37.6073 287.125 37.6073L284.899 51.4292H277.411ZM288.036 31.748H294.36C295.473 31.748 296.401 31.5811 297.143 31.2472C297.885 30.9133 298.475 30.3625 298.914 29.5946C299.386 28.7933 299.723 27.6916 299.926 26.2893C299.993 25.9889 300.027 25.7051 300.027 25.438C300.06 25.1375 300.077 24.8704 300.077 24.6367C300.077 23.7353 299.909 23.0342 299.571 22.5334C299.268 21.9992 298.812 21.6153 298.205 21.3816C297.632 21.1478 296.94 21.031 296.131 21.031H289.756L288.036 31.748Z" fill="#3D3D3D"/>
</g>
<defs>
<filter id="filter0_d_75_2307" x="-8" y="-8" width="338" height="82" filterUnits="userSpaceOnUse" color-interpolation-filters="sRGB">
<feFlood flood-opacity="0" result="BackgroundImageFix"/>
<feColorMatrix in="SourceAlpha" type="matrix" values="0 0 0 0 0 0 0 0 0 0 0 0 0 0 0 0 0 0 127 0" result="hardAlpha"/>
<feOffset/>
<feGaussianBlur stdDeviation="4"/>
<feComposite in2="hardAlpha" operator="out"/>
<feColorMatrix type="matrix" values="0 0 0 0 0 0 0 0 0 0 0 0 0 0 0 0 0 0 0.49 0"/>
<feBlend mode="normal" in2="BackgroundImageFix" result="effect1_dropShadow_75_2307"/>
<feBlend mode="normal" in="SourceGraphic" in2="effect1_dropShadow_75_2307" result="shape"/>
</filter>
</defs>
</svg>
