<svg width="269" height="36" viewBox="0 0 269 36" fill="none" xmlns="http://www.w3.org/2000/svg">
<path d="M9.69751 35.027C6.5362 35.027 4.28031 34.2075 2.92985 32.5685C1.61008 30.8992 0.950195 28.289 0.950195 24.7379C0.950195 23.6149 1.01158 22.4312 1.13435 21.1868C1.28781 19.9424 1.47196 18.6373 1.68681 17.2715C2.20858 13.9632 3.00658 11.095 4.08081 8.66693C5.18574 6.23883 6.67431 4.35706 8.54654 3.02161C10.4188 1.6558 12.7974 0.9729 15.6825 0.9729C18.1072 0.9729 20.1636 1.12466 21.8517 1.42817C23.5397 1.70133 25.0437 2.02002 26.3634 2.38423L26.0872 4.38741C24.7981 4.11425 23.2789 3.87144 21.5294 3.65898C19.7799 3.44652 17.8617 3.34029 15.7746 3.34029C13.3806 3.34029 11.4316 3.91697 9.9277 5.07031C8.42377 6.22366 7.22677 7.8778 6.3367 10.0327C5.47731 12.1877 4.80208 14.8434 4.311 17.9999C3.88131 20.7315 3.66647 23.0231 3.66647 24.8745C3.66647 27.5454 4.18824 29.503 5.23177 30.7474C6.30601 31.9918 8.05547 32.614 10.4802 32.614C11.2782 32.614 12.1375 32.5382 13.0583 32.3864C14.0098 32.2346 14.9459 32.0525 15.8667 31.8401C16.8181 31.6276 17.6775 31.4152 18.4448 31.2027C19.2121 30.9599 19.8106 30.7474 20.2403 30.5653L21.9898 19.5934H13.1964L13.4727 17.5902C14.3014 17.4688 15.3449 17.3929 16.6033 17.3626C17.8924 17.3019 19.4577 17.2715 21.2992 17.2715C21.6675 17.2715 22.0665 17.2867 22.4962 17.317C22.9259 17.317 23.3402 17.3322 23.7392 17.3626C24.1689 17.3626 24.5679 17.3777 24.9362 17.4081L22.1739 34.7538H20.2403L20.1482 32.3864C19.7492 32.5685 19.1507 32.8113 18.3527 33.1148C17.5854 33.4183 16.6954 33.7219 15.6825 34.0254C14.7004 34.2985 13.6875 34.5413 12.644 34.7538C11.6004 34.9359 10.6183 35.027 9.69751 35.027Z" fill="white"/>
<path d="M26.1609 34.7538L43.6556 1.33712H47.1084L53.4157 34.7538H50.6534L48.6738 24.4192H34.3558L28.9232 34.7538H26.1609ZM35.4607 22.0518H48.3515L44.9907 3.79556L35.4607 22.0518Z" fill="white"/>
<path d="M56.9571 34.7538L66.1648 1.33712H68.6509L73.577 30.9295L88.0791 1.33712H90.5652L89.138 34.7538H86.5138L87.8489 6.25401L74.2676 34.7538H71.7815L67.3157 6.34507L59.6273 34.7538H56.9571Z" fill="white"/>
<path d="M98.96 35.027C98.162 35.027 97.3793 34.9359 96.612 34.7538C95.8447 34.602 95.1542 34.2985 94.5403 33.8433C93.9572 33.388 93.5121 32.7354 93.2052 31.8856C92.929 31.0054 92.8983 29.8824 93.1131 28.5166L96.4739 7.57429C96.7501 5.96567 97.2566 4.7061 97.9932 3.79556C98.7298 2.88503 99.6045 2.24765 100.617 1.88344C101.661 1.48887 102.75 1.30676 103.886 1.33712C106.157 1.36747 108.429 1.41299 110.7 1.4737C113.002 1.5344 115.304 1.61028 117.606 1.70133L117.237 3.75004H104.024C102.704 3.75004 101.615 4.0839 100.756 4.75163C99.8961 5.41935 99.3283 6.5727 99.0521 8.21166L97.6709 16.9073L113.14 17.226L112.818 19.1836L97.2566 19.3657L95.8754 28.1979C95.6913 29.412 95.7527 30.3377 96.0596 30.9751C96.3665 31.6124 96.8422 32.0374 97.4868 32.2498C98.162 32.4623 98.9447 32.5685 99.8347 32.5685H112.726L112.357 34.6627C110.178 34.7234 107.968 34.7841 105.728 34.8448C103.487 34.9056 101.231 34.9663 98.96 35.027Z" fill="white"/>
<path d="M116.788 34.7538L120.932 8.71246C121.3 6.64858 121.944 5.07031 122.865 3.97767C123.786 2.85467 124.875 2.0959 126.134 1.70133C127.392 1.27641 128.666 1.06396 129.955 1.06396C132.595 1.06396 135.019 1.12466 137.229 1.24606C139.47 1.33711 141.68 1.4737 143.859 1.6558L142.984 7.30113H130.968C129.863 7.30113 129.05 7.57429 128.528 8.12061C128.006 8.63658 127.653 9.42571 127.469 10.488L126.64 15.9057L139.393 16.2699L138.518 21.5965L125.673 21.9152L123.602 34.7538H116.788Z" fill="white"/>
<path d="M141.624 34.7538L147.01 1.06396H153.824L148.437 34.7538H141.624Z" fill="white"/>
<path d="M153.016 34.7538L158.403 1.06396H163.881L174.562 23.281L178.153 1.06396H184.967L179.535 34.7538H174.102L163.421 12.4912L159.83 34.7538H153.016Z" fill="white"/>
<path d="M183.787 34.7538L189.173 1.06396H202.11C205.087 1.06396 207.404 1.54957 209.062 2.52081C210.75 3.49205 211.916 4.85785 212.561 6.61823C213.236 8.34824 213.574 10.4121 213.574 12.8099C213.574 13.7811 213.527 14.7827 213.435 15.8146C213.343 16.8466 213.205 17.8937 213.021 18.956C212.591 21.6876 211.931 24.055 211.041 26.0582C210.182 28.031 209.077 29.67 207.727 30.9751C206.376 32.2498 204.78 33.2059 202.939 33.8433C201.097 34.4503 198.979 34.7538 196.585 34.7538H183.787ZM191.567 28.6987H197.276C198.596 28.6987 199.747 28.4559 200.729 27.9703C201.742 27.4847 202.601 26.7866 203.307 25.8761C204.044 24.9352 204.642 23.797 205.102 22.4616C205.563 21.1261 205.931 19.5782 206.207 17.8178C206.361 16.7859 206.484 15.8602 206.576 15.0407C206.668 14.2212 206.714 13.5687 206.714 13.083C206.714 11.6565 206.514 10.5184 206.115 9.66852C205.716 8.78834 205.056 8.15096 204.136 7.75639C203.215 7.33148 201.972 7.11902 200.407 7.11902H195.02L191.567 28.6987Z" fill="white"/>
<path d="M222.529 35.027C221.67 35.027 220.78 34.9359 219.859 34.7538C218.938 34.5717 218.094 34.2075 217.327 33.6612C216.559 33.1148 215.976 32.3409 215.577 31.3393C215.178 30.3377 215.117 29.0326 215.393 27.424L218.386 8.80351C218.693 6.83068 219.276 5.28277 220.135 4.15978C221.025 3.03678 222.099 2.24765 223.358 1.79238C224.647 1.30676 226.028 1.06396 227.501 1.06396C229.803 1.06396 232.09 1.12466 234.361 1.24606C236.663 1.33711 239.011 1.4737 241.405 1.6558L240.484 7.30113H228.468C227.394 7.30113 226.58 7.55911 226.028 8.07508C225.476 8.59105 225.107 9.39536 224.923 10.488L224.233 14.8586L236.985 15.2683L236.11 20.595L223.266 20.9592L222.529 25.6484C222.406 26.3769 222.437 26.9687 222.621 27.424C222.805 27.8792 223.112 28.2131 223.542 28.4256C224.002 28.6077 224.57 28.6987 225.245 28.6987H237.077L236.203 34.3441C234.023 34.5262 231.814 34.6779 229.573 34.7993C227.332 34.9207 224.984 34.9966 222.529 35.027Z" fill="white"/>
<path d="M240.427 34.7538L245.813 1.06396H258.842C260.223 1.06396 261.481 1.21571 262.617 1.51922C263.753 1.82274 264.72 2.30835 265.518 2.97608C266.346 3.61346 266.975 4.46329 267.405 5.52558C267.835 6.58787 268.05 7.89297 268.05 9.44089C268.05 9.8658 268.019 10.3211 267.958 10.8067C267.927 11.2923 267.865 11.8083 267.773 12.3546C267.559 13.9632 267.175 15.2987 266.622 16.361C266.101 17.4233 265.502 18.2731 264.827 18.9105C264.152 19.5478 263.476 20.0335 262.801 20.3673C262.126 20.7012 261.543 20.9743 261.052 21.1868L265.195 34.7538H258.243L254.791 22.2339C254.422 22.2339 253.993 22.2339 253.501 22.2339C253.041 22.2339 252.55 22.2339 252.028 22.2339C251.537 22.2339 251.046 22.2339 250.555 22.2339C250.095 22.2036 249.665 22.1884 249.266 22.1884L247.24 34.7538H240.427ZM250.095 16.8618H255.849C256.862 16.8618 257.706 16.71 258.382 16.4065C259.057 16.103 259.594 15.6022 259.993 14.9041C260.423 14.1757 260.73 13.1741 260.914 11.8993C260.975 11.6262 261.006 11.3682 261.006 11.1254C261.036 10.8522 261.052 10.6094 261.052 10.397C261.052 9.57747 260.898 8.94009 260.591 8.48483C260.315 7.9992 259.901 7.65017 259.348 7.43771C258.827 7.22525 258.197 7.11902 257.461 7.11902H251.66L250.095 16.8618Z" fill="white"/>
</svg>
