<svg width="362" height="74" viewBox="0 0 362 74" fill="none" xmlns="http://www.w3.org/2000/svg">
<path d="M26.8073 58C22.9015 58 20.1143 56.9893 18.4459 54.9679C16.8153 52.9091 16 49.6898 16 45.3102C16 43.9251 16.0758 42.4652 16.2275 40.9305C16.4171 39.3957 16.6446 37.7861 16.9101 36.1016C17.5547 32.0214 18.5407 28.484 19.8679 25.4893C21.233 22.4947 23.0721 20.1738 25.3852 18.5267C27.6984 16.8422 30.6372 16 34.2017 16C37.1974 16 39.738 16.1872 41.8237 16.5615C43.9093 16.8984 45.7674 17.2914 47.3979 17.7406L47.0566 20.2112C45.464 19.8743 43.5869 19.5749 41.4255 19.3128C39.264 19.0508 36.894 18.9198 34.3155 18.9198C31.3577 18.9198 28.9497 19.631 27.0917 21.0535C25.2336 22.4759 23.7547 24.516 22.655 27.1738C21.5932 29.8316 20.759 33.107 20.1523 37C19.6214 40.369 19.3559 43.1952 19.3559 45.4786C19.3559 48.7727 20.0006 51.1872 21.2899 52.7219C22.6171 54.2567 24.7785 55.0241 27.7742 55.0241C28.7601 55.0241 29.8219 54.9305 30.9595 54.7433C32.135 54.5562 33.2916 54.3316 34.4292 54.0695C35.6047 53.8075 36.6665 53.5455 37.6145 53.2834C38.5625 52.984 39.302 52.7219 39.8328 52.4973L41.9943 38.9652H31.1302L31.4714 36.4947C32.4953 36.3449 33.7846 36.2513 35.3393 36.2139C36.932 36.139 38.8659 36.1016 41.1411 36.1016C41.5961 36.1016 42.0891 36.1203 42.62 36.1578C43.1509 36.1578 43.6628 36.1765 44.1558 36.2139C44.6866 36.2139 45.1796 36.2326 45.6346 36.2701L42.2218 57.6631H39.8328L39.7191 54.7433C39.2261 54.9679 38.4867 55.2674 37.5008 55.6417C36.5527 56.016 35.4531 56.3904 34.2017 56.7647C32.9883 57.1016 31.7369 57.4011 30.4476 57.6631C29.1583 57.8877 27.9449 58 26.8073 58Z" fill="white"/>
<path d="M47.1477 57.6631L68.7623 16.4492H73.0283L80.8209 57.6631H77.4081L74.9622 44.9171H57.2724L50.5606 57.6631H47.1477ZM58.6376 41.9973H74.564L70.4118 19.4813L58.6376 41.9973Z" fill="white"/>
<path d="M85.1962 57.6631L96.5723 16.4492H99.6438L105.73 52.9465L123.647 16.4492H126.719L124.956 57.6631H121.713L123.363 22.5134L106.583 57.6631H103.512L97.9943 22.6257L88.4953 57.6631H85.1962Z" fill="white"/>
<path d="M137.091 58C136.105 58 135.138 57.8877 134.19 57.6631C133.242 57.4759 132.389 57.1016 131.63 56.5401C130.91 55.9786 130.36 55.1738 129.981 54.1257C129.639 53.0401 129.601 51.6551 129.867 49.9706L134.019 24.1417C134.36 22.1578 134.986 20.6043 135.896 19.4813C136.806 18.3583 137.887 17.5722 139.138 17.123C140.428 16.6364 141.774 16.4118 143.177 16.4492C145.983 16.4866 148.789 16.5428 151.595 16.6176C154.439 16.6925 157.283 16.7861 160.127 16.8984L159.672 19.4251H143.347C141.717 19.4251 140.371 19.8369 139.309 20.6604C138.247 21.484 137.546 22.9064 137.204 24.9278L135.498 35.6524L154.61 36.0455L154.212 38.4599L134.986 38.6845L133.28 49.5775C133.052 51.0749 133.128 52.2166 133.507 53.0027C133.886 53.7888 134.474 54.3128 135.27 54.5749C136.105 54.8369 137.072 54.9679 138.171 54.9679H154.098L153.643 57.5508C150.95 57.6257 148.22 57.7005 145.452 57.7754C142.684 57.8503 139.897 57.9251 137.091 58Z" fill="white"/>
<path d="M159.117 57.6631L164.236 25.5455C164.691 23 165.488 21.0535 166.625 19.7059C167.763 18.3209 169.109 17.385 170.664 16.8984C172.219 16.3743 173.792 16.1123 175.385 16.1123C178.646 16.1123 181.642 16.1872 184.372 16.3369C187.14 16.4492 189.87 16.6176 192.563 16.8422L191.482 23.8048H176.636C175.271 23.8048 174.266 24.1417 173.622 24.8155C172.977 25.4519 172.541 26.4251 172.313 27.7353L171.289 34.4171L187.045 34.8663L185.965 41.4358L170.095 41.8289L167.535 57.6631H159.117Z" fill="white"/>
<path d="M189.801 57.6631L196.456 16.1123H204.875L198.22 57.6631H189.801Z" fill="white"/>
<path d="M203.877 57.6631L210.532 16.1123H217.301L230.497 43.5134L234.934 16.1123H243.352L236.64 57.6631H229.928L216.732 30.2059L212.295 57.6631H203.877Z" fill="white"/>
<path d="M241.893 57.6631L248.548 16.1123H264.532C268.21 16.1123 271.073 16.7112 273.121 17.9091C275.206 19.107 276.647 20.7914 277.444 22.9626C278.278 25.0963 278.695 27.6417 278.695 30.5989C278.695 31.7968 278.638 33.0321 278.524 34.3048C278.411 35.5775 278.24 36.869 278.012 38.1791C277.482 41.5481 276.666 44.4679 275.567 46.9385C274.505 49.3717 273.14 51.393 271.471 53.0027C269.803 54.5749 267.831 55.754 265.556 56.5401C263.28 57.2888 260.664 57.6631 257.706 57.6631H241.893ZM251.506 50.1952H258.559C260.19 50.1952 261.612 49.8957 262.825 49.2968C264.077 48.6979 265.139 47.8369 266.011 46.7139C266.921 45.5535 267.66 44.1497 268.229 42.5027C268.798 40.8556 269.253 38.9465 269.594 36.7754C269.784 35.5027 269.935 34.361 270.049 33.3503C270.163 32.3396 270.22 31.5348 270.22 30.9358C270.22 29.1765 269.973 27.7727 269.48 26.7246C268.987 25.639 268.172 24.8529 267.035 24.3663C265.897 23.8422 264.361 23.5802 262.427 23.5802H255.772L251.506 50.1952Z" fill="white"/>
<path d="M289.76 58C288.698 58 287.598 57.8877 286.461 57.6631C285.323 57.4385 284.28 56.9893 283.332 56.3155C282.384 55.6417 281.664 54.6872 281.171 53.4519C280.678 52.2166 280.602 50.607 280.943 48.623L284.64 25.6578C285.02 23.2246 285.74 21.3155 286.802 19.9305C287.901 18.5455 289.229 17.5722 290.783 17.0107C292.376 16.4118 294.082 16.1123 295.903 16.1123C298.747 16.1123 301.572 16.1872 304.378 16.3369C307.222 16.4492 310.123 16.6176 313.081 16.8422L311.943 23.8048H297.097C295.77 23.8048 294.765 24.123 294.082 24.7594C293.4 25.3957 292.945 26.3877 292.717 27.7353L291.864 33.1257L307.62 33.631L306.539 40.2005L290.67 40.6497L289.76 46.4332C289.608 47.3316 289.646 48.0615 289.873 48.623C290.101 49.1845 290.48 49.5963 291.011 49.8583C291.58 50.0829 292.281 50.1952 293.116 50.1952H307.734L306.653 57.1578C303.961 57.3824 301.23 57.5695 298.462 57.7192C295.694 57.869 292.793 57.9626 289.76 58Z" fill="white"/>
<path d="M311.872 57.6631L318.527 16.1123H334.624C336.33 16.1123 337.885 16.2995 339.288 16.6738C340.691 17.0481 341.886 17.6471 342.872 18.4706C343.895 19.2567 344.673 20.3048 345.204 21.615C345.735 22.9251 346 24.5348 346 26.4438C346 26.9679 345.962 27.5294 345.886 28.1283C345.848 28.7273 345.772 29.3636 345.659 30.0374C345.393 32.0214 344.919 33.6684 344.237 34.9786C343.592 36.2888 342.853 37.3369 342.018 38.123C341.184 38.9091 340.35 39.508 339.516 39.9198C338.681 40.3316 337.961 40.6685 337.354 40.9305L342.473 57.6631H333.884L329.618 42.2219C329.163 42.2219 328.633 42.2219 328.026 42.2219C327.457 42.2219 326.85 42.2219 326.206 42.2219C325.599 42.2219 324.992 42.2219 324.385 42.2219C323.817 42.1845 323.286 42.1658 322.793 42.1658L320.29 57.6631H311.872ZM323.817 35.5963H330.927C332.178 35.5963 333.221 35.4091 334.055 35.0348C334.889 34.6604 335.553 34.0428 336.046 33.1818C336.577 32.2834 336.956 31.0481 337.184 29.4759C337.259 29.139 337.297 28.8209 337.297 28.5214C337.335 28.1845 337.354 27.885 337.354 27.623C337.354 26.6123 337.165 25.8262 336.785 25.2647C336.444 24.6658 335.932 24.2353 335.25 23.9733C334.605 23.7112 333.828 23.5802 332.918 23.5802H325.751L323.817 35.5963Z" fill="white"/>
</svg>
